<?xml version="1.0" encoding="utf-8"?>
<!-- Generator: Adobe Illustrator 27.0.0, SVG Export Plug-In . SVG Version: 6.00 Build 0)  -->
<svg version="1.1" id="Layer_1" xmlns="http://www.w3.org/2000/svg" xmlns:xlink="http://www.w3.org/1999/xlink" x="0px" y="0px"
	 viewBox="0 0 45.8 35" style="enable-background:new 0 0 45.8 35;" xml:space="preserve">
<style type="text/css">
	.st0{display:none;}
</style>
<path id="noun_cloth_2129414" class="st0" d="M21.6,35c-0.6,0-1.1-0.3-1.3-0.9L17,25.6H2.7c-1.5,0-2.7-1.2-2.7-2.7c0,0,0,0,0,0V2.7
	C0,1.2,1.2,0,2.7,0c0,0,0,0,0,0h18.8c0.5,0,1,0.3,1.2,0.8l4.1,8.6h16.3c1.5,0,2.7,1.2,2.7,2.7c0,0,0,0,0,0v20.2
	c0,1.5-1.2,2.7-2.7,2.7c0,0,0,0,0,0L21.6,35z M20.7,2.7h-18c0,0,0,6.7,0,20.2h27.5L20.7,2.7z M28.1,12.1l5.4,11.5
	c0.3,0.5,0.1,1.2-0.3,1.6l-8.1,7.1h18c0,0,0-6.7,0-20.2H28.1z M22.1,31.4l6.6-5.8h-8.8L22.1,31.4z"/>
<image style="overflow:visible;" width="1505" height="1256" xlink:href="Untitled-1.png"  transform="matrix(3.469287e-02 0 0 3.469287e-02 -2.8936 -4.7872)">
</image>
</svg>
